%TF.GenerationSoftware,KiCad,Pcbnew,6.0.2+dfsg-1*%
%TF.CreationDate,2023-06-13T19:55:06-04:00*%
%TF.ProjectId,EngineData,456e6769-6e65-4446-9174-612e6b696361,rev?*%
%TF.SameCoordinates,Original*%
%TF.FileFunction,Soldermask,Bot*%
%TF.FilePolarity,Negative*%
%FSLAX46Y46*%
G04 Gerber Fmt 4.6, Leading zero omitted, Abs format (unit mm)*
G04 Created by KiCad (PCBNEW 6.0.2+dfsg-1) date 2023-06-13 19:55:06*
%MOMM*%
%LPD*%
G01*
G04 APERTURE LIST*
%ADD10R,1.800000X1.800000*%
%ADD11O,1.800000X1.800000*%
%ADD12C,2.700000*%
%ADD13R,1.700000X1.700000*%
%ADD14O,1.700000X1.700000*%
%ADD15R,1.600000X1.600000*%
%ADD16C,1.600000*%
%ADD17R,1.260000X1.260000*%
%ADD18C,1.260000*%
%ADD19O,2.000000X2.000000*%
%ADD20R,1.050000X1.500000*%
%ADD21O,1.050000X1.500000*%
%ADD22R,2.200000X2.200000*%
%ADD23O,2.200000X2.200000*%
G04 APERTURE END LIST*
D10*
%TO.C,D3*%
X116967000Y-122428000D03*
D11*
X116967000Y-130048000D03*
%TD*%
D12*
%TO.C,H5*%
X154774000Y-87249000D03*
%TD*%
D13*
%TO.C,J11*%
X180335000Y-59812000D03*
D14*
X182875000Y-59812000D03*
X180335000Y-62352000D03*
X182875000Y-62352000D03*
%TD*%
D13*
%TO.C,J13*%
X180335000Y-50409000D03*
D14*
X182875000Y-50409000D03*
X180335000Y-52949000D03*
X182875000Y-52949000D03*
%TD*%
D13*
%TO.C,J9*%
X136618000Y-140081000D03*
D14*
X136618000Y-142621000D03*
X136618000Y-145161000D03*
X136618000Y-147701000D03*
X136618000Y-150241000D03*
X136618000Y-152781000D03*
%TD*%
D13*
%TO.C,J5*%
X134835000Y-114173000D03*
D14*
X137375000Y-114173000D03*
X139915000Y-114173000D03*
X142455000Y-114173000D03*
X144995000Y-114173000D03*
X147535000Y-114173000D03*
X150075000Y-114173000D03*
X152615000Y-114173000D03*
%TD*%
D12*
%TO.C,H6*%
X154774000Y-64249000D03*
%TD*%
D13*
%TO.C,J3*%
X101820000Y-103764000D03*
D14*
X101820000Y-101224000D03*
X104360000Y-103764000D03*
X104360000Y-101224000D03*
X106900000Y-103764000D03*
X106900000Y-101224000D03*
X109440000Y-103764000D03*
X109440000Y-101224000D03*
X111980000Y-103764000D03*
X111980000Y-101224000D03*
X114520000Y-103764000D03*
X114520000Y-101224000D03*
X117060000Y-103764000D03*
X117060000Y-101224000D03*
X119600000Y-103764000D03*
X119600000Y-101224000D03*
X122140000Y-103764000D03*
X122140000Y-101224000D03*
X124680000Y-103764000D03*
X124680000Y-101224000D03*
X127220000Y-103764000D03*
X127220000Y-101224000D03*
X129760000Y-103764000D03*
X129760000Y-101224000D03*
X132300000Y-103764000D03*
X132300000Y-101224000D03*
X134840000Y-103764000D03*
X134840000Y-101224000D03*
X137380000Y-103764000D03*
X137380000Y-101224000D03*
X139920000Y-103764000D03*
X139920000Y-101224000D03*
X142460000Y-103764000D03*
X142460000Y-101224000D03*
X145000000Y-103764000D03*
X145000000Y-101224000D03*
X147540000Y-103764000D03*
X147540000Y-101224000D03*
X150080000Y-103764000D03*
X150080000Y-101224000D03*
%TD*%
D13*
%TO.C,J14*%
X172207000Y-50409000D03*
D14*
X174747000Y-50409000D03*
X172207000Y-52949000D03*
X174747000Y-52949000D03*
%TD*%
D13*
%TO.C,J6*%
X144995000Y-116713000D03*
D14*
X144995000Y-119253000D03*
X144995000Y-121793000D03*
X144995000Y-124333000D03*
%TD*%
D13*
%TO.C,J16*%
X142250000Y-50673000D03*
D14*
X144790000Y-50673000D03*
X147330000Y-50673000D03*
X149870000Y-50673000D03*
%TD*%
D12*
%TO.C,H1*%
X96901000Y-102616000D03*
%TD*%
D15*
%TO.C,C8*%
X186434349Y-74422000D03*
D16*
X189934349Y-74422000D03*
%TD*%
D13*
%TO.C,J8*%
X124680000Y-140081000D03*
D14*
X124680000Y-142621000D03*
X124680000Y-145161000D03*
X124680000Y-147701000D03*
X124680000Y-150241000D03*
X124680000Y-152781000D03*
%TD*%
D13*
%TO.C,J2*%
X176667000Y-132842000D03*
D14*
X179207000Y-132842000D03*
X181747000Y-132842000D03*
X184287000Y-132842000D03*
%TD*%
D15*
%TO.C,C10*%
X173099349Y-74422000D03*
D16*
X176599349Y-74422000D03*
%TD*%
D13*
%TO.C,J15*%
X123073000Y-50673000D03*
D14*
X125613000Y-50673000D03*
X128153000Y-50673000D03*
X130693000Y-50673000D03*
%TD*%
D12*
%TO.C,H3*%
X96901000Y-151616000D03*
%TD*%
D13*
%TO.C,J10*%
X101688000Y-88506000D03*
D14*
X101688000Y-85966000D03*
X104228000Y-88506000D03*
X104228000Y-85966000D03*
X106768000Y-88506000D03*
X106768000Y-85966000D03*
X109308000Y-88506000D03*
X109308000Y-85966000D03*
X111848000Y-88506000D03*
X111848000Y-85966000D03*
X114388000Y-88506000D03*
X114388000Y-85966000D03*
X116928000Y-88506000D03*
X116928000Y-85966000D03*
X119468000Y-88506000D03*
X119468000Y-85966000D03*
X122008000Y-88506000D03*
X122008000Y-85966000D03*
X124548000Y-88506000D03*
X124548000Y-85966000D03*
X127088000Y-88506000D03*
X127088000Y-85966000D03*
X129628000Y-88506000D03*
X129628000Y-85966000D03*
X132168000Y-88506000D03*
X132168000Y-85966000D03*
X134708000Y-88506000D03*
X134708000Y-85966000D03*
X137248000Y-88506000D03*
X137248000Y-85966000D03*
X139788000Y-88506000D03*
X139788000Y-85966000D03*
X142328000Y-88506000D03*
X142328000Y-85966000D03*
X144868000Y-88506000D03*
X144868000Y-85966000D03*
X147408000Y-88506000D03*
X147408000Y-85966000D03*
X149948000Y-88506000D03*
X149948000Y-85966000D03*
%TD*%
D17*
%TO.C,U1*%
X160106500Y-74930000D03*
D18*
X160106500Y-77470000D03*
X160106500Y-80010000D03*
X167726500Y-80010000D03*
X167726500Y-77470000D03*
X167726500Y-74930000D03*
%TD*%
D19*
%TO.C,J4*%
X96901000Y-141323000D03*
X96901000Y-137823000D03*
%TD*%
D13*
%TO.C,J1*%
X182748000Y-91943000D03*
D14*
X182748000Y-94483000D03*
X180208000Y-91943000D03*
X180208000Y-94483000D03*
X177668000Y-91943000D03*
X177668000Y-94483000D03*
X175128000Y-91943000D03*
X175128000Y-94483000D03*
X172588000Y-91943000D03*
X172588000Y-94483000D03*
%TD*%
D12*
%TO.C,H8*%
X96774000Y-87249000D03*
%TD*%
%TO.C,H7*%
X96774000Y-64249000D03*
%TD*%
D20*
%TO.C,Q1*%
X144018000Y-132440000D03*
D21*
X145288000Y-132440000D03*
X146558000Y-132440000D03*
%TD*%
D13*
%TO.C,J12*%
X172207000Y-59812000D03*
D14*
X174747000Y-59812000D03*
X172207000Y-62352000D03*
X174747000Y-62352000D03*
%TD*%
D13*
%TO.C,J7*%
X124680000Y-117744000D03*
D14*
X124680000Y-120284000D03*
X124680000Y-122824000D03*
X124680000Y-125364000D03*
X124680000Y-127904000D03*
X124680000Y-130444000D03*
X124680000Y-132984000D03*
X124680000Y-135524000D03*
%TD*%
D12*
%TO.C,H4*%
X154901000Y-151616000D03*
%TD*%
%TO.C,H2*%
X154901000Y-102616000D03*
%TD*%
D22*
%TO.C,D2*%
X145288000Y-146431000D03*
D23*
X145288000Y-136271000D03*
%TD*%
M02*
