%TF.GenerationSoftware,KiCad,Pcbnew,6.0.2+dfsg-1*%
%TF.CreationDate,2023-06-13T19:55:06-04:00*%
%TF.ProjectId,EngineData,456e6769-6e65-4446-9174-612e6b696361,rev?*%
%TF.SameCoordinates,Original*%
%TF.FileFunction,Legend,Bot*%
%TF.FilePolarity,Positive*%
%FSLAX46Y46*%
G04 Gerber Fmt 4.6, Leading zero omitted, Abs format (unit mm)*
G04 Created by KiCad (PCBNEW 6.0.2+dfsg-1) date 2023-06-13 19:55:06*
%MOMM*%
%LPD*%
G01*
G04 APERTURE LIST*
%ADD10C,0.150000*%
%ADD11C,0.300000*%
%ADD12R,1.800000X1.800000*%
%ADD13O,1.800000X1.800000*%
%ADD14C,2.700000*%
%ADD15R,1.700000X1.700000*%
%ADD16O,1.700000X1.700000*%
%ADD17R,1.600000X1.600000*%
%ADD18C,1.600000*%
%ADD19R,1.260000X1.260000*%
%ADD20C,1.260000*%
%ADD21O,2.000000X2.000000*%
%ADD22R,1.050000X1.500000*%
%ADD23O,1.050000X1.500000*%
%ADD24R,2.200000X2.200000*%
%ADD25O,2.200000X2.200000*%
G04 APERTURE END LIST*
D10*
X181315809Y-113818380D02*
X181315809Y-112818380D01*
X180982476Y-113532666D01*
X180649142Y-112818380D01*
X180649142Y-113818380D01*
X179744380Y-113818380D02*
X179744380Y-113294571D01*
X179792000Y-113199333D01*
X179887238Y-113151714D01*
X180077714Y-113151714D01*
X180172952Y-113199333D01*
X179744380Y-113770761D02*
X179839619Y-113818380D01*
X180077714Y-113818380D01*
X180172952Y-113770761D01*
X180220571Y-113675523D01*
X180220571Y-113580285D01*
X180172952Y-113485047D01*
X180077714Y-113437428D01*
X179839619Y-113437428D01*
X179744380Y-113389809D01*
X179268190Y-113818380D02*
X179268190Y-113151714D01*
X179268190Y-113342190D02*
X179220571Y-113246952D01*
X179172952Y-113199333D01*
X179077714Y-113151714D01*
X178982476Y-113151714D01*
X178649142Y-113818380D02*
X178649142Y-112818380D01*
X178553904Y-113437428D02*
X178268190Y-113818380D01*
X178268190Y-113151714D02*
X178649142Y-113532666D01*
X176553904Y-113818380D02*
X177125333Y-113818380D01*
X176839619Y-113818380D02*
X176839619Y-112818380D01*
X176934857Y-112961238D01*
X177030095Y-113056476D01*
X177125333Y-113104095D01*
X175696761Y-112818380D02*
X175887238Y-112818380D01*
X175982476Y-112866000D01*
X176030095Y-112913619D01*
X176125333Y-113056476D01*
X176172952Y-113246952D01*
X176172952Y-113627904D01*
X176125333Y-113723142D01*
X176077714Y-113770761D01*
X175982476Y-113818380D01*
X175792000Y-113818380D01*
X175696761Y-113770761D01*
X175649142Y-113723142D01*
X175601523Y-113627904D01*
X175601523Y-113389809D01*
X175649142Y-113294571D01*
X175696761Y-113246952D01*
X175792000Y-113199333D01*
X175982476Y-113199333D01*
X176077714Y-113246952D01*
X176125333Y-113294571D01*
X176172952Y-113389809D01*
X175172952Y-113723142D02*
X175125333Y-113770761D01*
X175172952Y-113818380D01*
X175220571Y-113770761D01*
X175172952Y-113723142D01*
X175172952Y-113818380D01*
X175172952Y-113199333D02*
X175125333Y-113246952D01*
X175172952Y-113294571D01*
X175220571Y-113246952D01*
X175172952Y-113199333D01*
X175172952Y-113294571D01*
X174172952Y-113818380D02*
X174744380Y-113818380D01*
X174458666Y-113818380D02*
X174458666Y-112818380D01*
X174553904Y-112961238D01*
X174649142Y-113056476D01*
X174744380Y-113104095D01*
X173315809Y-112818380D02*
X173506285Y-112818380D01*
X173601523Y-112866000D01*
X173649142Y-112913619D01*
X173744380Y-113056476D01*
X173792000Y-113246952D01*
X173792000Y-113627904D01*
X173744380Y-113723142D01*
X173696761Y-113770761D01*
X173601523Y-113818380D01*
X173411047Y-113818380D01*
X173315809Y-113770761D01*
X173268190Y-113723142D01*
X173220571Y-113627904D01*
X173220571Y-113389809D01*
X173268190Y-113294571D01*
X173315809Y-113246952D01*
X173411047Y-113199333D01*
X173601523Y-113199333D01*
X173696761Y-113246952D01*
X173744380Y-113294571D01*
X173792000Y-113389809D01*
X185315809Y-114428380D02*
X185077714Y-115428380D01*
X184887238Y-114714095D01*
X184696761Y-115428380D01*
X184458666Y-114428380D01*
X184077714Y-115428380D02*
X184077714Y-114428380D01*
X183649142Y-115428380D02*
X183649142Y-114904571D01*
X183696761Y-114809333D01*
X183792000Y-114761714D01*
X183934857Y-114761714D01*
X184030095Y-114809333D01*
X184077714Y-114856952D01*
X183030095Y-115428380D02*
X183125333Y-115380761D01*
X183172952Y-115333142D01*
X183220571Y-115237904D01*
X183220571Y-114952190D01*
X183172952Y-114856952D01*
X183125333Y-114809333D01*
X183030095Y-114761714D01*
X182887238Y-114761714D01*
X182792000Y-114809333D01*
X182744380Y-114856952D01*
X182696761Y-114952190D01*
X182696761Y-115237904D01*
X182744380Y-115333142D01*
X182792000Y-115380761D01*
X182887238Y-115428380D01*
X183030095Y-115428380D01*
X181887238Y-115380761D02*
X181982476Y-115428380D01*
X182172952Y-115428380D01*
X182268190Y-115380761D01*
X182315809Y-115285523D01*
X182315809Y-114904571D01*
X182268190Y-114809333D01*
X182172952Y-114761714D01*
X181982476Y-114761714D01*
X181887238Y-114809333D01*
X181839619Y-114904571D01*
X181839619Y-114999809D01*
X182315809Y-115095047D01*
X181506285Y-114761714D02*
X181268190Y-115428380D01*
X181030095Y-114761714D01*
X180268190Y-115380761D02*
X180363428Y-115428380D01*
X180553904Y-115428380D01*
X180649142Y-115380761D01*
X180696761Y-115285523D01*
X180696761Y-114904571D01*
X180649142Y-114809333D01*
X180553904Y-114761714D01*
X180363428Y-114761714D01*
X180268190Y-114809333D01*
X180220571Y-114904571D01*
X180220571Y-114999809D01*
X180696761Y-115095047D01*
X179792000Y-115428380D02*
X179792000Y-114761714D01*
X179792000Y-114952190D02*
X179744380Y-114856952D01*
X179696761Y-114809333D01*
X179601523Y-114761714D01*
X179506285Y-114761714D01*
X178411047Y-115428380D02*
X178411047Y-114428380D01*
X178411047Y-114809333D02*
X178315809Y-114761714D01*
X178125333Y-114761714D01*
X178030095Y-114809333D01*
X177982476Y-114856952D01*
X177934857Y-114952190D01*
X177934857Y-115237904D01*
X177982476Y-115333142D01*
X178030095Y-115380761D01*
X178125333Y-115428380D01*
X178315809Y-115428380D01*
X178411047Y-115380761D01*
X177125333Y-115380761D02*
X177220571Y-115428380D01*
X177411047Y-115428380D01*
X177506285Y-115380761D01*
X177553904Y-115285523D01*
X177553904Y-114904571D01*
X177506285Y-114809333D01*
X177411047Y-114761714D01*
X177220571Y-114761714D01*
X177125333Y-114809333D01*
X177077714Y-114904571D01*
X177077714Y-114999809D01*
X177553904Y-115095047D01*
X176506285Y-115428380D02*
X176601523Y-115380761D01*
X176649142Y-115285523D01*
X176649142Y-114428380D01*
X176125333Y-115428380D02*
X176125333Y-114761714D01*
X176125333Y-114428380D02*
X176172952Y-114476000D01*
X176125333Y-114523619D01*
X176077714Y-114476000D01*
X176125333Y-114428380D01*
X176125333Y-114523619D01*
X175268190Y-115380761D02*
X175363428Y-115428380D01*
X175553904Y-115428380D01*
X175649142Y-115380761D01*
X175696761Y-115285523D01*
X175696761Y-114904571D01*
X175649142Y-114809333D01*
X175553904Y-114761714D01*
X175363428Y-114761714D01*
X175268190Y-114809333D01*
X175220571Y-114904571D01*
X175220571Y-114999809D01*
X175696761Y-115095047D01*
X174887238Y-114761714D02*
X174649142Y-115428380D01*
X174411047Y-114761714D01*
X173649142Y-115380761D02*
X173744380Y-115428380D01*
X173934857Y-115428380D01*
X174030095Y-115380761D01*
X174077714Y-115285523D01*
X174077714Y-114904571D01*
X174030095Y-114809333D01*
X173934857Y-114761714D01*
X173744380Y-114761714D01*
X173649142Y-114809333D01*
X173601523Y-114904571D01*
X173601523Y-114999809D01*
X174077714Y-115095047D01*
X173220571Y-115380761D02*
X173125333Y-115428380D01*
X172934857Y-115428380D01*
X172839619Y-115380761D01*
X172792000Y-115285523D01*
X172792000Y-115237904D01*
X172839619Y-115142666D01*
X172934857Y-115095047D01*
X173077714Y-115095047D01*
X173172952Y-115047428D01*
X173220571Y-114952190D01*
X173220571Y-114904571D01*
X173172952Y-114809333D01*
X173077714Y-114761714D01*
X172934857Y-114761714D01*
X172839619Y-114809333D01*
X171172952Y-115428380D02*
X171172952Y-114904571D01*
X171220571Y-114809333D01*
X171315809Y-114761714D01*
X171506285Y-114761714D01*
X171601523Y-114809333D01*
X171172952Y-115380761D02*
X171268190Y-115428380D01*
X171506285Y-115428380D01*
X171601523Y-115380761D01*
X171649142Y-115285523D01*
X171649142Y-115190285D01*
X171601523Y-115095047D01*
X171506285Y-115047428D01*
X171268190Y-115047428D01*
X171172952Y-114999809D01*
X170696761Y-114761714D02*
X170696761Y-115428380D01*
X170696761Y-114856952D02*
X170649142Y-114809333D01*
X170553904Y-114761714D01*
X170411047Y-114761714D01*
X170315809Y-114809333D01*
X170268190Y-114904571D01*
X170268190Y-115428380D01*
X169363428Y-115428380D02*
X169363428Y-114428380D01*
X169363428Y-115380761D02*
X169458666Y-115428380D01*
X169649142Y-115428380D01*
X169744380Y-115380761D01*
X169792000Y-115333142D01*
X169839619Y-115237904D01*
X169839619Y-114952190D01*
X169792000Y-114856952D01*
X169744380Y-114809333D01*
X169649142Y-114761714D01*
X169458666Y-114761714D01*
X169363428Y-114809333D01*
X186911047Y-117038380D02*
X186911047Y-116371714D01*
X186911047Y-116038380D02*
X186958666Y-116086000D01*
X186911047Y-116133619D01*
X186863428Y-116086000D01*
X186911047Y-116038380D01*
X186911047Y-116133619D01*
X186482476Y-116990761D02*
X186387238Y-117038380D01*
X186196761Y-117038380D01*
X186101523Y-116990761D01*
X186053904Y-116895523D01*
X186053904Y-116847904D01*
X186101523Y-116752666D01*
X186196761Y-116705047D01*
X186339619Y-116705047D01*
X186434857Y-116657428D01*
X186482476Y-116562190D01*
X186482476Y-116514571D01*
X186434857Y-116419333D01*
X186339619Y-116371714D01*
X186196761Y-116371714D01*
X186101523Y-116419333D01*
X184863428Y-117038380D02*
X184863428Y-116038380D01*
X184863428Y-116419333D02*
X184768190Y-116371714D01*
X184577714Y-116371714D01*
X184482476Y-116419333D01*
X184434857Y-116466952D01*
X184387238Y-116562190D01*
X184387238Y-116847904D01*
X184434857Y-116943142D01*
X184482476Y-116990761D01*
X184577714Y-117038380D01*
X184768190Y-117038380D01*
X184863428Y-116990761D01*
X183530095Y-117038380D02*
X183530095Y-116514571D01*
X183577714Y-116419333D01*
X183672952Y-116371714D01*
X183863428Y-116371714D01*
X183958666Y-116419333D01*
X183530095Y-116990761D02*
X183625333Y-117038380D01*
X183863428Y-117038380D01*
X183958666Y-116990761D01*
X184006285Y-116895523D01*
X184006285Y-116800285D01*
X183958666Y-116705047D01*
X183863428Y-116657428D01*
X183625333Y-116657428D01*
X183530095Y-116609809D01*
X183053904Y-116371714D02*
X183053904Y-117371714D01*
X183053904Y-116419333D02*
X182958666Y-116371714D01*
X182768190Y-116371714D01*
X182672952Y-116419333D01*
X182625333Y-116466952D01*
X182577714Y-116562190D01*
X182577714Y-116847904D01*
X182625333Y-116943142D01*
X182672952Y-116990761D01*
X182768190Y-117038380D01*
X182958666Y-117038380D01*
X183053904Y-116990761D01*
X182292000Y-116371714D02*
X181911047Y-116371714D01*
X182149142Y-116038380D02*
X182149142Y-116895523D01*
X182101523Y-116990761D01*
X182006285Y-117038380D01*
X181911047Y-117038380D01*
X181577714Y-117038380D02*
X181577714Y-116371714D01*
X181577714Y-116038380D02*
X181625333Y-116086000D01*
X181577714Y-116133619D01*
X181530095Y-116086000D01*
X181577714Y-116038380D01*
X181577714Y-116133619D01*
X181196761Y-116371714D02*
X180672952Y-116371714D01*
X181196761Y-117038380D01*
X180672952Y-117038380D01*
X179911047Y-116990761D02*
X180006285Y-117038380D01*
X180196761Y-117038380D01*
X180292000Y-116990761D01*
X180339619Y-116895523D01*
X180339619Y-116514571D01*
X180292000Y-116419333D01*
X180196761Y-116371714D01*
X180006285Y-116371714D01*
X179911047Y-116419333D01*
X179863428Y-116514571D01*
X179863428Y-116609809D01*
X180339619Y-116705047D01*
X179006285Y-117038380D02*
X179006285Y-116038380D01*
X179006285Y-116990761D02*
X179101523Y-117038380D01*
X179292000Y-117038380D01*
X179387238Y-116990761D01*
X179434857Y-116943142D01*
X179482476Y-116847904D01*
X179482476Y-116562190D01*
X179434857Y-116466952D01*
X179387238Y-116419333D01*
X179292000Y-116371714D01*
X179101523Y-116371714D01*
X179006285Y-116419333D01*
X177863428Y-116371714D02*
X177672952Y-117038380D01*
X177482476Y-116562190D01*
X177292000Y-117038380D01*
X177101523Y-116371714D01*
X176720571Y-117038380D02*
X176720571Y-116371714D01*
X176720571Y-116038380D02*
X176768190Y-116086000D01*
X176720571Y-116133619D01*
X176672952Y-116086000D01*
X176720571Y-116038380D01*
X176720571Y-116133619D01*
X176101523Y-117038380D02*
X176196761Y-116990761D01*
X176244380Y-116895523D01*
X176244380Y-116038380D01*
X175577714Y-117038380D02*
X175672952Y-116990761D01*
X175720571Y-116895523D01*
X175720571Y-116038380D01*
X174434857Y-117038380D02*
X174434857Y-116038380D01*
X174434857Y-116419333D02*
X174339619Y-116371714D01*
X174149142Y-116371714D01*
X174053904Y-116419333D01*
X174006285Y-116466952D01*
X173958666Y-116562190D01*
X173958666Y-116847904D01*
X174006285Y-116943142D01*
X174053904Y-116990761D01*
X174149142Y-117038380D01*
X174339619Y-117038380D01*
X174434857Y-116990761D01*
X173149142Y-116990761D02*
X173244380Y-117038380D01*
X173434857Y-117038380D01*
X173530095Y-116990761D01*
X173577714Y-116895523D01*
X173577714Y-116514571D01*
X173530095Y-116419333D01*
X173434857Y-116371714D01*
X173244380Y-116371714D01*
X173149142Y-116419333D01*
X173101523Y-116514571D01*
X173101523Y-116609809D01*
X173577714Y-116705047D01*
X171958666Y-116990761D02*
X171863428Y-117038380D01*
X171672952Y-117038380D01*
X171577714Y-116990761D01*
X171530095Y-116895523D01*
X171530095Y-116847904D01*
X171577714Y-116752666D01*
X171672952Y-116705047D01*
X171815809Y-116705047D01*
X171911047Y-116657428D01*
X171958666Y-116562190D01*
X171958666Y-116514571D01*
X171911047Y-116419333D01*
X171815809Y-116371714D01*
X171672952Y-116371714D01*
X171577714Y-116419333D01*
X170672952Y-117038380D02*
X170672952Y-116514571D01*
X170720571Y-116419333D01*
X170815809Y-116371714D01*
X171006285Y-116371714D01*
X171101523Y-116419333D01*
X170672952Y-116990761D02*
X170768190Y-117038380D01*
X171006285Y-117038380D01*
X171101523Y-116990761D01*
X171149142Y-116895523D01*
X171149142Y-116800285D01*
X171101523Y-116705047D01*
X171006285Y-116657428D01*
X170768190Y-116657428D01*
X170672952Y-116609809D01*
X170292000Y-116371714D02*
X170053904Y-117038380D01*
X169815809Y-116371714D01*
X169053904Y-116990761D02*
X169149142Y-117038380D01*
X169339619Y-117038380D01*
X169434857Y-116990761D01*
X169482476Y-116895523D01*
X169482476Y-116514571D01*
X169434857Y-116419333D01*
X169339619Y-116371714D01*
X169149142Y-116371714D01*
X169053904Y-116419333D01*
X169006285Y-116514571D01*
X169006285Y-116609809D01*
X169482476Y-116705047D01*
X168149142Y-117038380D02*
X168149142Y-116038380D01*
X168149142Y-116990761D02*
X168244380Y-117038380D01*
X168434857Y-117038380D01*
X168530095Y-116990761D01*
X168577714Y-116943142D01*
X168625333Y-116847904D01*
X168625333Y-116562190D01*
X168577714Y-116466952D01*
X168530095Y-116419333D01*
X168434857Y-116371714D01*
X168244380Y-116371714D01*
X168149142Y-116419333D01*
X167625333Y-116990761D02*
X167625333Y-117038380D01*
X167672952Y-117133619D01*
X167720571Y-117181238D01*
X185292000Y-118648380D02*
X185292000Y-117648380D01*
X185292000Y-118029333D02*
X185196761Y-117981714D01*
X185006285Y-117981714D01*
X184911047Y-118029333D01*
X184863428Y-118076952D01*
X184815809Y-118172190D01*
X184815809Y-118457904D01*
X184863428Y-118553142D01*
X184911047Y-118600761D01*
X185006285Y-118648380D01*
X185196761Y-118648380D01*
X185292000Y-118600761D01*
X183958666Y-117981714D02*
X183958666Y-118648380D01*
X184387238Y-117981714D02*
X184387238Y-118505523D01*
X184339619Y-118600761D01*
X184244380Y-118648380D01*
X184101523Y-118648380D01*
X184006285Y-118600761D01*
X183958666Y-118553142D01*
X183625333Y-117981714D02*
X183244380Y-117981714D01*
X183482476Y-117648380D02*
X183482476Y-118505523D01*
X183434857Y-118600761D01*
X183339619Y-118648380D01*
X183244380Y-118648380D01*
X182244380Y-117981714D02*
X182053904Y-118648380D01*
X181863428Y-118172190D01*
X181672952Y-118648380D01*
X181482476Y-117981714D01*
X181101523Y-118648380D02*
X181101523Y-117648380D01*
X180672952Y-118648380D02*
X180672952Y-118124571D01*
X180720571Y-118029333D01*
X180815809Y-117981714D01*
X180958666Y-117981714D01*
X181053904Y-118029333D01*
X181101523Y-118076952D01*
X180053904Y-118648380D02*
X180149142Y-118600761D01*
X180196761Y-118553142D01*
X180244380Y-118457904D01*
X180244380Y-118172190D01*
X180196761Y-118076952D01*
X180149142Y-118029333D01*
X180053904Y-117981714D01*
X179911047Y-117981714D01*
X179815809Y-118029333D01*
X179768190Y-118076952D01*
X179720571Y-118172190D01*
X179720571Y-118457904D01*
X179768190Y-118553142D01*
X179815809Y-118600761D01*
X179911047Y-118648380D01*
X180053904Y-118648380D01*
X178911047Y-118600761D02*
X179006285Y-118648380D01*
X179196761Y-118648380D01*
X179292000Y-118600761D01*
X179339619Y-118505523D01*
X179339619Y-118124571D01*
X179292000Y-118029333D01*
X179196761Y-117981714D01*
X179006285Y-117981714D01*
X178911047Y-118029333D01*
X178863428Y-118124571D01*
X178863428Y-118219809D01*
X179339619Y-118315047D01*
X178530095Y-117981714D02*
X178292000Y-118648380D01*
X178053904Y-117981714D01*
X177292000Y-118600761D02*
X177387238Y-118648380D01*
X177577714Y-118648380D01*
X177672952Y-118600761D01*
X177720571Y-118505523D01*
X177720571Y-118124571D01*
X177672952Y-118029333D01*
X177577714Y-117981714D01*
X177387238Y-117981714D01*
X177292000Y-118029333D01*
X177244380Y-118124571D01*
X177244380Y-118219809D01*
X177720571Y-118315047D01*
X176815809Y-118648380D02*
X176815809Y-117981714D01*
X176815809Y-118172190D02*
X176768190Y-118076952D01*
X176720571Y-118029333D01*
X176625333Y-117981714D01*
X176530095Y-117981714D01*
X175006285Y-118648380D02*
X175006285Y-117648380D01*
X175006285Y-118600761D02*
X175101523Y-118648380D01*
X175292000Y-118648380D01*
X175387238Y-118600761D01*
X175434857Y-118553142D01*
X175482476Y-118457904D01*
X175482476Y-118172190D01*
X175434857Y-118076952D01*
X175387238Y-118029333D01*
X175292000Y-117981714D01*
X175101523Y-117981714D01*
X175006285Y-118029333D01*
X174387238Y-118648380D02*
X174482476Y-118600761D01*
X174530095Y-118553142D01*
X174577714Y-118457904D01*
X174577714Y-118172190D01*
X174530095Y-118076952D01*
X174482476Y-118029333D01*
X174387238Y-117981714D01*
X174244380Y-117981714D01*
X174149142Y-118029333D01*
X174101523Y-118076952D01*
X174053904Y-118172190D01*
X174053904Y-118457904D01*
X174101523Y-118553142D01*
X174149142Y-118600761D01*
X174244380Y-118648380D01*
X174387238Y-118648380D01*
X173244380Y-118600761D02*
X173339619Y-118648380D01*
X173530095Y-118648380D01*
X173625333Y-118600761D01*
X173672952Y-118505523D01*
X173672952Y-118124571D01*
X173625333Y-118029333D01*
X173530095Y-117981714D01*
X173339619Y-117981714D01*
X173244380Y-118029333D01*
X173196761Y-118124571D01*
X173196761Y-118219809D01*
X173672952Y-118315047D01*
X172815809Y-118600761D02*
X172720571Y-118648380D01*
X172530095Y-118648380D01*
X172434857Y-118600761D01*
X172387238Y-118505523D01*
X172387238Y-118457904D01*
X172434857Y-118362666D01*
X172530095Y-118315047D01*
X172672952Y-118315047D01*
X172768190Y-118267428D01*
X172815809Y-118172190D01*
X172815809Y-118124571D01*
X172768190Y-118029333D01*
X172672952Y-117981714D01*
X172530095Y-117981714D01*
X172434857Y-118029333D01*
X171196761Y-117981714D02*
X171196761Y-118648380D01*
X171196761Y-118076952D02*
X171149142Y-118029333D01*
X171053904Y-117981714D01*
X170911047Y-117981714D01*
X170815809Y-118029333D01*
X170768190Y-118124571D01*
X170768190Y-118648380D01*
X170149142Y-118648380D02*
X170244380Y-118600761D01*
X170292000Y-118553142D01*
X170339619Y-118457904D01*
X170339619Y-118172190D01*
X170292000Y-118076952D01*
X170244380Y-118029333D01*
X170149142Y-117981714D01*
X170006285Y-117981714D01*
X169911047Y-118029333D01*
X169863428Y-118076952D01*
X169815809Y-118172190D01*
X169815809Y-118457904D01*
X169863428Y-118553142D01*
X169911047Y-118600761D01*
X170006285Y-118648380D01*
X170149142Y-118648380D01*
X169530095Y-117981714D02*
X169149142Y-117981714D01*
X169387238Y-117648380D02*
X169387238Y-118505523D01*
X169339619Y-118600761D01*
X169244380Y-118648380D01*
X169149142Y-118648380D01*
X187434857Y-120258380D02*
X187434857Y-119258380D01*
X187434857Y-119639333D02*
X187339619Y-119591714D01*
X187149142Y-119591714D01*
X187053904Y-119639333D01*
X187006285Y-119686952D01*
X186958666Y-119782190D01*
X186958666Y-120067904D01*
X187006285Y-120163142D01*
X187053904Y-120210761D01*
X187149142Y-120258380D01*
X187339619Y-120258380D01*
X187434857Y-120210761D01*
X186149142Y-120210761D02*
X186244380Y-120258380D01*
X186434857Y-120258380D01*
X186530095Y-120210761D01*
X186577714Y-120115523D01*
X186577714Y-119734571D01*
X186530095Y-119639333D01*
X186434857Y-119591714D01*
X186244380Y-119591714D01*
X186149142Y-119639333D01*
X186101523Y-119734571D01*
X186101523Y-119829809D01*
X186577714Y-119925047D01*
X185530095Y-120258380D02*
X185625333Y-120210761D01*
X185672952Y-120115523D01*
X185672952Y-119258380D01*
X185149142Y-120258380D02*
X185149142Y-119591714D01*
X185149142Y-119258380D02*
X185196761Y-119306000D01*
X185149142Y-119353619D01*
X185101523Y-119306000D01*
X185149142Y-119258380D01*
X185149142Y-119353619D01*
X184292000Y-120210761D02*
X184387238Y-120258380D01*
X184577714Y-120258380D01*
X184672952Y-120210761D01*
X184720571Y-120115523D01*
X184720571Y-119734571D01*
X184672952Y-119639333D01*
X184577714Y-119591714D01*
X184387238Y-119591714D01*
X184292000Y-119639333D01*
X184244380Y-119734571D01*
X184244380Y-119829809D01*
X184720571Y-119925047D01*
X183911047Y-119591714D02*
X183672952Y-120258380D01*
X183434857Y-119591714D01*
X182672952Y-120210761D02*
X182768190Y-120258380D01*
X182958666Y-120258380D01*
X183053904Y-120210761D01*
X183101523Y-120115523D01*
X183101523Y-119734571D01*
X183053904Y-119639333D01*
X182958666Y-119591714D01*
X182768190Y-119591714D01*
X182672952Y-119639333D01*
X182625333Y-119734571D01*
X182625333Y-119829809D01*
X183101523Y-119925047D01*
X181530095Y-119591714D02*
X181339619Y-120258380D01*
X181149142Y-119782190D01*
X180958666Y-120258380D01*
X180768190Y-119591714D01*
X180387238Y-120258380D02*
X180387238Y-119591714D01*
X180387238Y-119258380D02*
X180434857Y-119306000D01*
X180387238Y-119353619D01*
X180339619Y-119306000D01*
X180387238Y-119258380D01*
X180387238Y-119353619D01*
X179768190Y-120258380D02*
X179863428Y-120210761D01*
X179911047Y-120115523D01*
X179911047Y-119258380D01*
X179244380Y-120258380D02*
X179339619Y-120210761D01*
X179387238Y-120115523D01*
X179387238Y-119258380D01*
X178101523Y-120258380D02*
X178101523Y-119258380D01*
X178101523Y-119639333D02*
X178006285Y-119591714D01*
X177815809Y-119591714D01*
X177720571Y-119639333D01*
X177672952Y-119686952D01*
X177625333Y-119782190D01*
X177625333Y-120067904D01*
X177672952Y-120163142D01*
X177720571Y-120210761D01*
X177815809Y-120258380D01*
X178006285Y-120258380D01*
X178101523Y-120210761D01*
X176815809Y-120210761D02*
X176911047Y-120258380D01*
X177101523Y-120258380D01*
X177196761Y-120210761D01*
X177244380Y-120115523D01*
X177244380Y-119734571D01*
X177196761Y-119639333D01*
X177101523Y-119591714D01*
X176911047Y-119591714D01*
X176815809Y-119639333D01*
X176768190Y-119734571D01*
X176768190Y-119829809D01*
X177244380Y-119925047D01*
X175149142Y-120210761D02*
X175244380Y-120258380D01*
X175434857Y-120258380D01*
X175530095Y-120210761D01*
X175577714Y-120163142D01*
X175625333Y-120067904D01*
X175625333Y-119782190D01*
X175577714Y-119686952D01*
X175530095Y-119639333D01*
X175434857Y-119591714D01*
X175244380Y-119591714D01*
X175149142Y-119639333D01*
X174577714Y-120258380D02*
X174672952Y-120210761D01*
X174720571Y-120163142D01*
X174768190Y-120067904D01*
X174768190Y-119782190D01*
X174720571Y-119686952D01*
X174672952Y-119639333D01*
X174577714Y-119591714D01*
X174434857Y-119591714D01*
X174339619Y-119639333D01*
X174292000Y-119686952D01*
X174244380Y-119782190D01*
X174244380Y-120067904D01*
X174292000Y-120163142D01*
X174339619Y-120210761D01*
X174434857Y-120258380D01*
X174577714Y-120258380D01*
X173815809Y-119591714D02*
X173815809Y-120258380D01*
X173815809Y-119686952D02*
X173768190Y-119639333D01*
X173672952Y-119591714D01*
X173530095Y-119591714D01*
X173434857Y-119639333D01*
X173387238Y-119734571D01*
X173387238Y-120258380D01*
X172482476Y-120258380D02*
X172482476Y-119258380D01*
X172482476Y-120210761D02*
X172577714Y-120258380D01*
X172768190Y-120258380D01*
X172863428Y-120210761D01*
X172911047Y-120163142D01*
X172958666Y-120067904D01*
X172958666Y-119782190D01*
X172911047Y-119686952D01*
X172863428Y-119639333D01*
X172768190Y-119591714D01*
X172577714Y-119591714D01*
X172482476Y-119639333D01*
X171625333Y-120210761D02*
X171720571Y-120258380D01*
X171911047Y-120258380D01*
X172006285Y-120210761D01*
X172053904Y-120115523D01*
X172053904Y-119734571D01*
X172006285Y-119639333D01*
X171911047Y-119591714D01*
X171720571Y-119591714D01*
X171625333Y-119639333D01*
X171577714Y-119734571D01*
X171577714Y-119829809D01*
X172053904Y-119925047D01*
X171149142Y-120258380D02*
X171149142Y-119591714D01*
X171149142Y-119686952D02*
X171101523Y-119639333D01*
X171006285Y-119591714D01*
X170863428Y-119591714D01*
X170768190Y-119639333D01*
X170720571Y-119734571D01*
X170720571Y-120258380D01*
X170720571Y-119734571D02*
X170672952Y-119639333D01*
X170577714Y-119591714D01*
X170434857Y-119591714D01*
X170339619Y-119639333D01*
X170292000Y-119734571D01*
X170292000Y-120258380D01*
X169815809Y-119591714D02*
X169815809Y-120258380D01*
X169815809Y-119686952D02*
X169768190Y-119639333D01*
X169672952Y-119591714D01*
X169530095Y-119591714D01*
X169434857Y-119639333D01*
X169387238Y-119734571D01*
X169387238Y-120258380D01*
X168530095Y-120210761D02*
X168625333Y-120258380D01*
X168815809Y-120258380D01*
X168911047Y-120210761D01*
X168958666Y-120115523D01*
X168958666Y-119734571D01*
X168911047Y-119639333D01*
X168815809Y-119591714D01*
X168625333Y-119591714D01*
X168530095Y-119639333D01*
X168482476Y-119734571D01*
X168482476Y-119829809D01*
X168958666Y-119925047D01*
X167625333Y-120258380D02*
X167625333Y-119258380D01*
X167625333Y-120210761D02*
X167720571Y-120258380D01*
X167911047Y-120258380D01*
X168006285Y-120210761D01*
X168053904Y-120163142D01*
X168101523Y-120067904D01*
X168101523Y-119782190D01*
X168053904Y-119686952D01*
X168006285Y-119639333D01*
X167911047Y-119591714D01*
X167720571Y-119591714D01*
X167625333Y-119639333D01*
X167149142Y-120163142D02*
X167101523Y-120210761D01*
X167149142Y-120258380D01*
X167196761Y-120210761D01*
X167149142Y-120163142D01*
X167149142Y-120258380D01*
X109449714Y-51665142D02*
X109497333Y-51712761D01*
X109640190Y-51760380D01*
X109735428Y-51760380D01*
X109878285Y-51712761D01*
X109973523Y-51617523D01*
X110021142Y-51522285D01*
X110068761Y-51331809D01*
X110068761Y-51188952D01*
X110021142Y-50998476D01*
X109973523Y-50903238D01*
X109878285Y-50808000D01*
X109735428Y-50760380D01*
X109640190Y-50760380D01*
X109497333Y-50808000D01*
X109449714Y-50855619D01*
X108687809Y-51236571D02*
X108544952Y-51284190D01*
X108497333Y-51331809D01*
X108449714Y-51427047D01*
X108449714Y-51569904D01*
X108497333Y-51665142D01*
X108544952Y-51712761D01*
X108640190Y-51760380D01*
X109021142Y-51760380D01*
X109021142Y-50760380D01*
X108687809Y-50760380D01*
X108592571Y-50808000D01*
X108544952Y-50855619D01*
X108497333Y-50950857D01*
X108497333Y-51046095D01*
X108544952Y-51141333D01*
X108592571Y-51188952D01*
X108687809Y-51236571D01*
X109021142Y-51236571D01*
X107497333Y-51760380D02*
X108068761Y-51760380D01*
X107783047Y-51760380D02*
X107783047Y-50760380D01*
X107878285Y-50903238D01*
X107973523Y-50998476D01*
X108068761Y-51046095D01*
X106544952Y-51760380D02*
X107116380Y-51760380D01*
X106830666Y-51760380D02*
X106830666Y-50760380D01*
X106925904Y-50903238D01*
X107021142Y-50998476D01*
X107116380Y-51046095D01*
X105925904Y-50760380D02*
X105830666Y-50760380D01*
X105735428Y-50808000D01*
X105687809Y-50855619D01*
X105640190Y-50950857D01*
X105592571Y-51141333D01*
X105592571Y-51379428D01*
X105640190Y-51569904D01*
X105687809Y-51665142D01*
X105735428Y-51712761D01*
X105830666Y-51760380D01*
X105925904Y-51760380D01*
X106021142Y-51712761D01*
X106068761Y-51665142D01*
X106116380Y-51569904D01*
X106164000Y-51379428D01*
X106164000Y-51141333D01*
X106116380Y-50950857D01*
X106068761Y-50855619D01*
X106021142Y-50808000D01*
X105925904Y-50760380D01*
X104973523Y-50760380D02*
X104878285Y-50760380D01*
X104783047Y-50808000D01*
X104735428Y-50855619D01*
X104687809Y-50950857D01*
X104640190Y-51141333D01*
X104640190Y-51379428D01*
X104687809Y-51569904D01*
X104735428Y-51665142D01*
X104783047Y-51712761D01*
X104878285Y-51760380D01*
X104973523Y-51760380D01*
X105068761Y-51712761D01*
X105116380Y-51665142D01*
X105164000Y-51569904D01*
X105211619Y-51379428D01*
X105211619Y-51141333D01*
X105164000Y-50950857D01*
X105116380Y-50855619D01*
X105068761Y-50808000D01*
X104973523Y-50760380D01*
X104354476Y-51093714D02*
X103973523Y-51093714D01*
X104211619Y-51760380D02*
X104211619Y-50903238D01*
X104164000Y-50808000D01*
X104068761Y-50760380D01*
X103973523Y-50760380D01*
X103640190Y-51665142D02*
X103592571Y-51712761D01*
X103640190Y-51760380D01*
X103687809Y-51712761D01*
X103640190Y-51665142D01*
X103640190Y-51760380D01*
X103164000Y-51093714D02*
X103164000Y-51760380D01*
X103164000Y-51188952D02*
X103116380Y-51141333D01*
X103021142Y-51093714D01*
X102878285Y-51093714D01*
X102783047Y-51141333D01*
X102735428Y-51236571D01*
X102735428Y-51760380D01*
X101878285Y-51712761D02*
X101973523Y-51760380D01*
X102164000Y-51760380D01*
X102259238Y-51712761D01*
X102306857Y-51617523D01*
X102306857Y-51236571D01*
X102259238Y-51141333D01*
X102164000Y-51093714D01*
X101973523Y-51093714D01*
X101878285Y-51141333D01*
X101830666Y-51236571D01*
X101830666Y-51331809D01*
X102306857Y-51427047D01*
X101544952Y-51093714D02*
X101164000Y-51093714D01*
X101402095Y-50760380D02*
X101402095Y-51617523D01*
X101354476Y-51712761D01*
X101259238Y-51760380D01*
X101164000Y-51760380D01*
D11*
X189344285Y-151085357D02*
X188844285Y-151085357D01*
X188630000Y-151871071D02*
X189344285Y-151871071D01*
X189344285Y-150371071D01*
X188630000Y-150371071D01*
X187987142Y-150871071D02*
X187987142Y-151871071D01*
X187987142Y-151013928D02*
X187915714Y-150942500D01*
X187772857Y-150871071D01*
X187558571Y-150871071D01*
X187415714Y-150942500D01*
X187344285Y-151085357D01*
X187344285Y-151871071D01*
X185987142Y-150871071D02*
X185987142Y-152085357D01*
X186058571Y-152228214D01*
X186130000Y-152299642D01*
X186272857Y-152371071D01*
X186487142Y-152371071D01*
X186630000Y-152299642D01*
X185987142Y-151799642D02*
X186130000Y-151871071D01*
X186415714Y-151871071D01*
X186558571Y-151799642D01*
X186630000Y-151728214D01*
X186701428Y-151585357D01*
X186701428Y-151156785D01*
X186630000Y-151013928D01*
X186558571Y-150942500D01*
X186415714Y-150871071D01*
X186130000Y-150871071D01*
X185987142Y-150942500D01*
X185272857Y-151871071D02*
X185272857Y-150871071D01*
X185272857Y-150371071D02*
X185344285Y-150442500D01*
X185272857Y-150513928D01*
X185201428Y-150442500D01*
X185272857Y-150371071D01*
X185272857Y-150513928D01*
X184558571Y-150871071D02*
X184558571Y-151871071D01*
X184558571Y-151013928D02*
X184487142Y-150942500D01*
X184344285Y-150871071D01*
X184130000Y-150871071D01*
X183987142Y-150942500D01*
X183915714Y-151085357D01*
X183915714Y-151871071D01*
X182630000Y-151799642D02*
X182772857Y-151871071D01*
X183058571Y-151871071D01*
X183201428Y-151799642D01*
X183272857Y-151656785D01*
X183272857Y-151085357D01*
X183201428Y-150942500D01*
X183058571Y-150871071D01*
X182772857Y-150871071D01*
X182630000Y-150942500D01*
X182558571Y-151085357D01*
X182558571Y-151228214D01*
X183272857Y-151371071D01*
X180772857Y-151871071D02*
X180772857Y-150371071D01*
X180415714Y-150371071D01*
X180201428Y-150442500D01*
X180058571Y-150585357D01*
X179987142Y-150728214D01*
X179915714Y-151013928D01*
X179915714Y-151228214D01*
X179987142Y-151513928D01*
X180058571Y-151656785D01*
X180201428Y-151799642D01*
X180415714Y-151871071D01*
X180772857Y-151871071D01*
X178630000Y-151871071D02*
X178630000Y-151085357D01*
X178701428Y-150942500D01*
X178844285Y-150871071D01*
X179130000Y-150871071D01*
X179272857Y-150942500D01*
X178630000Y-151799642D02*
X178772857Y-151871071D01*
X179130000Y-151871071D01*
X179272857Y-151799642D01*
X179344285Y-151656785D01*
X179344285Y-151513928D01*
X179272857Y-151371071D01*
X179130000Y-151299642D01*
X178772857Y-151299642D01*
X178630000Y-151228214D01*
X178130000Y-150871071D02*
X177558571Y-150871071D01*
X177915714Y-150371071D02*
X177915714Y-151656785D01*
X177844285Y-151799642D01*
X177701428Y-151871071D01*
X177558571Y-151871071D01*
X176415714Y-151871071D02*
X176415714Y-151085357D01*
X176487142Y-150942500D01*
X176630000Y-150871071D01*
X176915714Y-150871071D01*
X177058571Y-150942500D01*
X176415714Y-151799642D02*
X176558571Y-151871071D01*
X176915714Y-151871071D01*
X177058571Y-151799642D01*
X177130000Y-151656785D01*
X177130000Y-151513928D01*
X177058571Y-151371071D01*
X176915714Y-151299642D01*
X176558571Y-151299642D01*
X176415714Y-151228214D01*
X192808571Y-152786071D02*
X192808571Y-153857500D01*
X192880000Y-154071785D01*
X193022857Y-154214642D01*
X193237142Y-154286071D01*
X193380000Y-154286071D01*
X191451428Y-154286071D02*
X191451428Y-153500357D01*
X191522857Y-153357500D01*
X191665714Y-153286071D01*
X191951428Y-153286071D01*
X192094285Y-153357500D01*
X191451428Y-154214642D02*
X191594285Y-154286071D01*
X191951428Y-154286071D01*
X192094285Y-154214642D01*
X192165714Y-154071785D01*
X192165714Y-153928928D01*
X192094285Y-153786071D01*
X191951428Y-153714642D01*
X191594285Y-153714642D01*
X191451428Y-153643214D01*
X190094285Y-154214642D02*
X190237142Y-154286071D01*
X190522857Y-154286071D01*
X190665714Y-154214642D01*
X190737142Y-154143214D01*
X190808571Y-154000357D01*
X190808571Y-153571785D01*
X190737142Y-153428928D01*
X190665714Y-153357500D01*
X190522857Y-153286071D01*
X190237142Y-153286071D01*
X190094285Y-153357500D01*
X189237142Y-154286071D02*
X189380000Y-154214642D01*
X189451428Y-154143214D01*
X189522857Y-154000357D01*
X189522857Y-153571785D01*
X189451428Y-153428928D01*
X189380000Y-153357500D01*
X189237142Y-153286071D01*
X189022857Y-153286071D01*
X188880000Y-153357500D01*
X188808571Y-153428928D01*
X188737142Y-153571785D01*
X188737142Y-154000357D01*
X188808571Y-154143214D01*
X188880000Y-154214642D01*
X189022857Y-154286071D01*
X189237142Y-154286071D01*
X188094285Y-154286071D02*
X188094285Y-152786071D01*
X188094285Y-153357500D02*
X187951428Y-153286071D01*
X187665714Y-153286071D01*
X187522857Y-153357500D01*
X187451428Y-153428928D01*
X187380000Y-153571785D01*
X187380000Y-154000357D01*
X187451428Y-154143214D01*
X187522857Y-154214642D01*
X187665714Y-154286071D01*
X187951428Y-154286071D01*
X188094285Y-154214642D01*
X184808571Y-152857500D02*
X184951428Y-152786071D01*
X185165714Y-152786071D01*
X185380000Y-152857500D01*
X185522857Y-153000357D01*
X185594285Y-153143214D01*
X185665714Y-153428928D01*
X185665714Y-153643214D01*
X185594285Y-153928928D01*
X185522857Y-154071785D01*
X185380000Y-154214642D01*
X185165714Y-154286071D01*
X185022857Y-154286071D01*
X184808571Y-154214642D01*
X184737142Y-154143214D01*
X184737142Y-153643214D01*
X185022857Y-153643214D01*
X183522857Y-154214642D02*
X183665714Y-154286071D01*
X183951428Y-154286071D01*
X184094285Y-154214642D01*
X184165714Y-154071785D01*
X184165714Y-153500357D01*
X184094285Y-153357500D01*
X183951428Y-153286071D01*
X183665714Y-153286071D01*
X183522857Y-153357500D01*
X183451428Y-153500357D01*
X183451428Y-153643214D01*
X184165714Y-153786071D01*
X182808571Y-154286071D02*
X182808571Y-153286071D01*
X182808571Y-152786071D02*
X182880000Y-152857500D01*
X182808571Y-152928928D01*
X182737142Y-152857500D01*
X182808571Y-152786071D01*
X182808571Y-152928928D01*
X181451428Y-153286071D02*
X181451428Y-154500357D01*
X181522857Y-154643214D01*
X181594285Y-154714642D01*
X181737142Y-154786071D01*
X181951428Y-154786071D01*
X182094285Y-154714642D01*
X181451428Y-154214642D02*
X181594285Y-154286071D01*
X181880000Y-154286071D01*
X182022857Y-154214642D01*
X182094285Y-154143214D01*
X182165714Y-154000357D01*
X182165714Y-153571785D01*
X182094285Y-153428928D01*
X182022857Y-153357500D01*
X181880000Y-153286071D01*
X181594285Y-153286071D01*
X181451428Y-153357500D01*
X180522857Y-154286071D02*
X180665714Y-154214642D01*
X180737142Y-154071785D01*
X180737142Y-152786071D01*
X179380000Y-154214642D02*
X179522857Y-154286071D01*
X179808571Y-154286071D01*
X179951428Y-154214642D01*
X180022857Y-154071785D01*
X180022857Y-153500357D01*
X179951428Y-153357500D01*
X179808571Y-153286071D01*
X179522857Y-153286071D01*
X179380000Y-153357500D01*
X179308571Y-153500357D01*
X179308571Y-153643214D01*
X180022857Y-153786071D01*
X177594285Y-152928928D02*
X177522857Y-152857500D01*
X177380000Y-152786071D01*
X177022857Y-152786071D01*
X176880000Y-152857500D01*
X176808571Y-152928928D01*
X176737142Y-153071785D01*
X176737142Y-153214642D01*
X176808571Y-153428928D01*
X177665714Y-154286071D01*
X176737142Y-154286071D01*
X175808571Y-152786071D02*
X175665714Y-152786071D01*
X175522857Y-152857500D01*
X175451428Y-152928928D01*
X175380000Y-153071785D01*
X175308571Y-153357500D01*
X175308571Y-153714642D01*
X175380000Y-154000357D01*
X175451428Y-154143214D01*
X175522857Y-154214642D01*
X175665714Y-154286071D01*
X175808571Y-154286071D01*
X175951428Y-154214642D01*
X176022857Y-154143214D01*
X176094285Y-154000357D01*
X176165714Y-153714642D01*
X176165714Y-153357500D01*
X176094285Y-153071785D01*
X176022857Y-152928928D01*
X175951428Y-152857500D01*
X175808571Y-152786071D01*
X174737142Y-152928928D02*
X174665714Y-152857500D01*
X174522857Y-152786071D01*
X174165714Y-152786071D01*
X174022857Y-152857500D01*
X173951428Y-152928928D01*
X173880000Y-153071785D01*
X173880000Y-153214642D01*
X173951428Y-153428928D01*
X174808571Y-154286071D01*
X173880000Y-154286071D01*
X173380000Y-152786071D02*
X172451428Y-152786071D01*
X172951428Y-153357500D01*
X172737142Y-153357500D01*
X172594285Y-153428928D01*
X172522857Y-153500357D01*
X172451428Y-153643214D01*
X172451428Y-154000357D01*
X172522857Y-154143214D01*
X172594285Y-154214642D01*
X172737142Y-154286071D01*
X173165714Y-154286071D01*
X173308571Y-154214642D01*
X173380000Y-154143214D01*
%LPC*%
D12*
%TO.C,D3*%
X116967000Y-122428000D03*
D13*
X116967000Y-130048000D03*
%TD*%
D14*
%TO.C,H5*%
X154774000Y-87249000D03*
%TD*%
D15*
%TO.C,J11*%
X180335000Y-59812000D03*
D16*
X182875000Y-59812000D03*
X180335000Y-62352000D03*
X182875000Y-62352000D03*
%TD*%
D15*
%TO.C,J13*%
X180335000Y-50409000D03*
D16*
X182875000Y-50409000D03*
X180335000Y-52949000D03*
X182875000Y-52949000D03*
%TD*%
D15*
%TO.C,J9*%
X136618000Y-140081000D03*
D16*
X136618000Y-142621000D03*
X136618000Y-145161000D03*
X136618000Y-147701000D03*
X136618000Y-150241000D03*
X136618000Y-152781000D03*
%TD*%
D15*
%TO.C,J5*%
X134835000Y-114173000D03*
D16*
X137375000Y-114173000D03*
X139915000Y-114173000D03*
X142455000Y-114173000D03*
X144995000Y-114173000D03*
X147535000Y-114173000D03*
X150075000Y-114173000D03*
X152615000Y-114173000D03*
%TD*%
D14*
%TO.C,H6*%
X154774000Y-64249000D03*
%TD*%
D15*
%TO.C,J3*%
X101820000Y-103764000D03*
D16*
X101820000Y-101224000D03*
X104360000Y-103764000D03*
X104360000Y-101224000D03*
X106900000Y-103764000D03*
X106900000Y-101224000D03*
X109440000Y-103764000D03*
X109440000Y-101224000D03*
X111980000Y-103764000D03*
X111980000Y-101224000D03*
X114520000Y-103764000D03*
X114520000Y-101224000D03*
X117060000Y-103764000D03*
X117060000Y-101224000D03*
X119600000Y-103764000D03*
X119600000Y-101224000D03*
X122140000Y-103764000D03*
X122140000Y-101224000D03*
X124680000Y-103764000D03*
X124680000Y-101224000D03*
X127220000Y-103764000D03*
X127220000Y-101224000D03*
X129760000Y-103764000D03*
X129760000Y-101224000D03*
X132300000Y-103764000D03*
X132300000Y-101224000D03*
X134840000Y-103764000D03*
X134840000Y-101224000D03*
X137380000Y-103764000D03*
X137380000Y-101224000D03*
X139920000Y-103764000D03*
X139920000Y-101224000D03*
X142460000Y-103764000D03*
X142460000Y-101224000D03*
X145000000Y-103764000D03*
X145000000Y-101224000D03*
X147540000Y-103764000D03*
X147540000Y-101224000D03*
X150080000Y-103764000D03*
X150080000Y-101224000D03*
%TD*%
D15*
%TO.C,J14*%
X172207000Y-50409000D03*
D16*
X174747000Y-50409000D03*
X172207000Y-52949000D03*
X174747000Y-52949000D03*
%TD*%
D15*
%TO.C,J6*%
X144995000Y-116713000D03*
D16*
X144995000Y-119253000D03*
X144995000Y-121793000D03*
X144995000Y-124333000D03*
%TD*%
D15*
%TO.C,J16*%
X142250000Y-50673000D03*
D16*
X144790000Y-50673000D03*
X147330000Y-50673000D03*
X149870000Y-50673000D03*
%TD*%
D14*
%TO.C,H1*%
X96901000Y-102616000D03*
%TD*%
D17*
%TO.C,C8*%
X186434349Y-74422000D03*
D18*
X189934349Y-74422000D03*
%TD*%
D15*
%TO.C,J8*%
X124680000Y-140081000D03*
D16*
X124680000Y-142621000D03*
X124680000Y-145161000D03*
X124680000Y-147701000D03*
X124680000Y-150241000D03*
X124680000Y-152781000D03*
%TD*%
D15*
%TO.C,J2*%
X176667000Y-132842000D03*
D16*
X179207000Y-132842000D03*
X181747000Y-132842000D03*
X184287000Y-132842000D03*
%TD*%
D17*
%TO.C,C10*%
X173099349Y-74422000D03*
D18*
X176599349Y-74422000D03*
%TD*%
D15*
%TO.C,J15*%
X123073000Y-50673000D03*
D16*
X125613000Y-50673000D03*
X128153000Y-50673000D03*
X130693000Y-50673000D03*
%TD*%
D14*
%TO.C,H3*%
X96901000Y-151616000D03*
%TD*%
D15*
%TO.C,J10*%
X101688000Y-88506000D03*
D16*
X101688000Y-85966000D03*
X104228000Y-88506000D03*
X104228000Y-85966000D03*
X106768000Y-88506000D03*
X106768000Y-85966000D03*
X109308000Y-88506000D03*
X109308000Y-85966000D03*
X111848000Y-88506000D03*
X111848000Y-85966000D03*
X114388000Y-88506000D03*
X114388000Y-85966000D03*
X116928000Y-88506000D03*
X116928000Y-85966000D03*
X119468000Y-88506000D03*
X119468000Y-85966000D03*
X122008000Y-88506000D03*
X122008000Y-85966000D03*
X124548000Y-88506000D03*
X124548000Y-85966000D03*
X127088000Y-88506000D03*
X127088000Y-85966000D03*
X129628000Y-88506000D03*
X129628000Y-85966000D03*
X132168000Y-88506000D03*
X132168000Y-85966000D03*
X134708000Y-88506000D03*
X134708000Y-85966000D03*
X137248000Y-88506000D03*
X137248000Y-85966000D03*
X139788000Y-88506000D03*
X139788000Y-85966000D03*
X142328000Y-88506000D03*
X142328000Y-85966000D03*
X144868000Y-88506000D03*
X144868000Y-85966000D03*
X147408000Y-88506000D03*
X147408000Y-85966000D03*
X149948000Y-88506000D03*
X149948000Y-85966000D03*
%TD*%
D19*
%TO.C,U1*%
X160106500Y-74930000D03*
D20*
X160106500Y-77470000D03*
X160106500Y-80010000D03*
X167726500Y-80010000D03*
X167726500Y-77470000D03*
X167726500Y-74930000D03*
%TD*%
D21*
%TO.C,J4*%
X96901000Y-141323000D03*
X96901000Y-137823000D03*
%TD*%
D15*
%TO.C,J1*%
X182748000Y-91943000D03*
D16*
X182748000Y-94483000D03*
X180208000Y-91943000D03*
X180208000Y-94483000D03*
X177668000Y-91943000D03*
X177668000Y-94483000D03*
X175128000Y-91943000D03*
X175128000Y-94483000D03*
X172588000Y-91943000D03*
X172588000Y-94483000D03*
%TD*%
D14*
%TO.C,H8*%
X96774000Y-87249000D03*
%TD*%
%TO.C,H7*%
X96774000Y-64249000D03*
%TD*%
D22*
%TO.C,Q1*%
X144018000Y-132440000D03*
D23*
X145288000Y-132440000D03*
X146558000Y-132440000D03*
%TD*%
D15*
%TO.C,J12*%
X172207000Y-59812000D03*
D16*
X174747000Y-59812000D03*
X172207000Y-62352000D03*
X174747000Y-62352000D03*
%TD*%
D15*
%TO.C,J7*%
X124680000Y-117744000D03*
D16*
X124680000Y-120284000D03*
X124680000Y-122824000D03*
X124680000Y-125364000D03*
X124680000Y-127904000D03*
X124680000Y-130444000D03*
X124680000Y-132984000D03*
X124680000Y-135524000D03*
%TD*%
D14*
%TO.C,H4*%
X154901000Y-151616000D03*
%TD*%
%TO.C,H2*%
X154901000Y-102616000D03*
%TD*%
D24*
%TO.C,D2*%
X145288000Y-146431000D03*
D25*
X145288000Y-136271000D03*
%TD*%
M02*
