%TF.GenerationSoftware,KiCad,Pcbnew,6.0.2+dfsg-1*%
%TF.CreationDate,2023-06-13T19:55:06-04:00*%
%TF.ProjectId,EngineData,456e6769-6e65-4446-9174-612e6b696361,rev?*%
%TF.SameCoordinates,Original*%
%TF.FileFunction,Paste,Top*%
%TF.FilePolarity,Positive*%
%FSLAX46Y46*%
G04 Gerber Fmt 4.6, Leading zero omitted, Abs format (unit mm)*
G04 Created by KiCad (PCBNEW 6.0.2+dfsg-1) date 2023-06-13 19:55:06*
%MOMM*%
%LPD*%
G01*
G04 APERTURE LIST*
G04 Aperture macros list*
%AMRoundRect*
0 Rectangle with rounded corners*
0 $1 Rounding radius*
0 $2 $3 $4 $5 $6 $7 $8 $9 X,Y pos of 4 corners*
0 Add a 4 corners polygon primitive as box body*
4,1,4,$2,$3,$4,$5,$6,$7,$8,$9,$2,$3,0*
0 Add four circle primitives for the rounded corners*
1,1,$1+$1,$2,$3*
1,1,$1+$1,$4,$5*
1,1,$1+$1,$6,$7*
1,1,$1+$1,$8,$9*
0 Add four rect primitives between the rounded corners*
20,1,$1+$1,$2,$3,$4,$5,0*
20,1,$1+$1,$4,$5,$6,$7,0*
20,1,$1+$1,$6,$7,$8,$9,0*
20,1,$1+$1,$8,$9,$2,$3,0*%
G04 Aperture macros list end*
%ADD10R,1.999996X1.799996*%
%ADD11RoundRect,0.135000X-0.135000X-0.185000X0.135000X-0.185000X0.135000X0.185000X-0.135000X0.185000X0*%
%ADD12RoundRect,0.140000X0.140000X0.170000X-0.140000X0.170000X-0.140000X-0.170000X0.140000X-0.170000X0*%
%ADD13O,0.590000X2.050000*%
%ADD14R,1.200000X1.400000*%
%ADD15RoundRect,0.135000X0.135000X0.185000X-0.135000X0.185000X-0.135000X-0.185000X0.135000X-0.185000X0*%
%ADD16O,2.050000X0.590000*%
%ADD17RoundRect,0.140000X-0.140000X-0.170000X0.140000X-0.170000X0.140000X0.170000X-0.140000X0.170000X0*%
%ADD18RoundRect,0.135000X-0.185000X0.135000X-0.185000X-0.135000X0.185000X-0.135000X0.185000X0.135000X0*%
%ADD19RoundRect,0.135000X0.185000X-0.135000X0.185000X0.135000X-0.185000X0.135000X-0.185000X-0.135000X0*%
%ADD20RoundRect,0.250000X-0.475000X0.250000X-0.475000X-0.250000X0.475000X-0.250000X0.475000X0.250000X0*%
%ADD21RoundRect,0.140000X0.170000X-0.140000X0.170000X0.140000X-0.170000X0.140000X-0.170000X-0.140000X0*%
%ADD22RoundRect,0.140000X-0.170000X0.140000X-0.170000X-0.140000X0.170000X-0.140000X0.170000X0.140000X0*%
%ADD23R,2.500000X2.300000*%
%ADD24RoundRect,0.250000X-0.250000X-0.475000X0.250000X-0.475000X0.250000X0.475000X-0.250000X0.475000X0*%
%ADD25RoundRect,0.150000X-0.825000X-0.150000X0.825000X-0.150000X0.825000X0.150000X-0.825000X0.150000X0*%
%ADD26RoundRect,0.100000X-0.100000X0.637500X-0.100000X-0.637500X0.100000X-0.637500X0.100000X0.637500X0*%
%ADD27R,1.400000X1.200000*%
%ADD28R,3.500000X2.950000*%
%ADD29RoundRect,0.200000X-0.200000X-0.275000X0.200000X-0.275000X0.200000X0.275000X-0.200000X0.275000X0*%
%ADD30R,3.100000X2.600000*%
%ADD31R,0.600000X1.550000*%
%ADD32RoundRect,0.150000X-0.875000X-0.150000X0.875000X-0.150000X0.875000X0.150000X-0.875000X0.150000X0*%
%ADD33RoundRect,0.150000X-0.150000X0.750000X-0.150000X-0.750000X0.150000X-0.750000X0.150000X0.750000X0*%
%ADD34RoundRect,0.100000X-0.637500X-0.100000X0.637500X-0.100000X0.637500X0.100000X-0.637500X0.100000X0*%
%ADD35RoundRect,0.250000X0.250000X0.475000X-0.250000X0.475000X-0.250000X-0.475000X0.250000X-0.475000X0*%
%ADD36RoundRect,0.200000X0.275000X-0.200000X0.275000X0.200000X-0.275000X0.200000X-0.275000X-0.200000X0*%
G04 APERTURE END LIST*
D10*
%TO.C,U9*%
X139212091Y-122173898D03*
X139212091Y-119633899D03*
X129011960Y-119633899D03*
X129011960Y-122173898D03*
%TD*%
%TO.C,U2*%
X139212091Y-132714898D03*
X139212091Y-130174899D03*
X129011960Y-130174899D03*
X129011960Y-132714898D03*
%TD*%
D11*
%TO.C,R17*%
X112647000Y-110038000D03*
X113667000Y-110038000D03*
%TD*%
D12*
%TO.C,C4*%
X147236000Y-67437000D03*
X146276000Y-67437000D03*
%TD*%
D13*
%TO.C,U10*%
X152659000Y-120928000D03*
X151379000Y-120928000D03*
X150119000Y-120928000D03*
X148849000Y-120928000D03*
X148849000Y-126468000D03*
X150119000Y-126468000D03*
X151379000Y-126468000D03*
X152659000Y-126468000D03*
%TD*%
D14*
%TO.C,Y3*%
X110014000Y-70823000D03*
X110014000Y-68623000D03*
X108314000Y-68623000D03*
X108314000Y-70823000D03*
%TD*%
D15*
%TO.C,R22*%
X149608000Y-128524000D03*
X148588000Y-128524000D03*
%TD*%
D12*
%TO.C,C14*%
X113891000Y-118491000D03*
X112931000Y-118491000D03*
%TD*%
D16*
%TO.C,U8*%
X110974000Y-97033000D03*
X110974000Y-95753000D03*
X110974000Y-94493000D03*
X110974000Y-93223000D03*
X105434000Y-93223000D03*
X105434000Y-94493000D03*
X105434000Y-95753000D03*
X105434000Y-97033000D03*
%TD*%
D17*
%TO.C,C3*%
X102644000Y-97028000D03*
X103604000Y-97028000D03*
%TD*%
D18*
%TO.C,R3*%
X119761000Y-128427000D03*
X119761000Y-129447000D03*
%TD*%
D19*
%TO.C,R19*%
X114046000Y-96014000D03*
X114046000Y-94994000D03*
%TD*%
D20*
%TO.C,Cout2*%
X170714668Y-124402000D03*
X170714668Y-126302000D03*
%TD*%
D21*
%TO.C,C2*%
X137287000Y-62075000D03*
X137287000Y-61115000D03*
%TD*%
D12*
%TO.C,C7*%
X155801000Y-130175000D03*
X154841000Y-130175000D03*
%TD*%
D22*
%TO.C,C11*%
X152654000Y-118011000D03*
X152654000Y-118971000D03*
%TD*%
D19*
%TO.C,R20*%
X112903000Y-96014000D03*
X112903000Y-94994000D03*
%TD*%
D23*
%TO.C,D4*%
X185937000Y-83566000D03*
X190237000Y-83566000D03*
%TD*%
D24*
%TO.C,C9*%
X164938668Y-115835000D03*
X166838668Y-115835000D03*
%TD*%
D25*
%TO.C,U4*%
X139201000Y-59743000D03*
X139201000Y-61013000D03*
X139201000Y-62283000D03*
X139201000Y-63553000D03*
X144151000Y-63553000D03*
X144151000Y-62283000D03*
X144151000Y-61013000D03*
X144151000Y-59743000D03*
%TD*%
D15*
%TO.C,Rfbt1*%
X166906668Y-114057000D03*
X165886668Y-114057000D03*
%TD*%
D26*
%TO.C,U3*%
X184449000Y-100398500D03*
X183799000Y-100398500D03*
X183149000Y-100398500D03*
X182499000Y-100398500D03*
X181849000Y-100398500D03*
X181199000Y-100398500D03*
X180549000Y-100398500D03*
X180549000Y-106123500D03*
X181199000Y-106123500D03*
X181849000Y-106123500D03*
X182499000Y-106123500D03*
X183149000Y-106123500D03*
X183799000Y-106123500D03*
X184449000Y-106123500D03*
%TD*%
D18*
%TO.C,R4*%
X119761000Y-130681000D03*
X119761000Y-131701000D03*
%TD*%
D11*
%TO.C,R12*%
X146119000Y-59418000D03*
X147139000Y-59418000D03*
%TD*%
D27*
%TO.C,Y2*%
X95801000Y-128739000D03*
X98001000Y-128739000D03*
X98001000Y-127039000D03*
X95801000Y-127039000D03*
%TD*%
D23*
%TO.C,D1*%
X172602000Y-83566000D03*
X176902000Y-83566000D03*
%TD*%
D28*
%TO.C,L1*%
X171984668Y-115454000D03*
X171984668Y-120904000D03*
%TD*%
D11*
%TO.C,R21*%
X150620000Y-128524000D03*
X151640000Y-128524000D03*
%TD*%
D20*
%TO.C,Cout1*%
X168217000Y-124402000D03*
X168217000Y-126302000D03*
%TD*%
D17*
%TO.C,C17*%
X108712000Y-67019500D03*
X109672000Y-67019500D03*
%TD*%
D29*
%TO.C,R10*%
X129731000Y-124587000D03*
X131381000Y-124587000D03*
%TD*%
D12*
%TO.C,C1*%
X113764000Y-97028000D03*
X112804000Y-97028000D03*
%TD*%
D20*
%TO.C,Cout3*%
X173212334Y-124402000D03*
X173212334Y-126302000D03*
%TD*%
%TO.C,Cout4*%
X175710000Y-124402000D03*
X175710000Y-126302000D03*
%TD*%
D12*
%TO.C,C15*%
X97381000Y-130302000D03*
X96421000Y-130302000D03*
%TD*%
D17*
%TO.C,Cboot1*%
X169853668Y-112914000D03*
X170813668Y-112914000D03*
%TD*%
D30*
%TO.C,U7*%
X169063668Y-108342000D03*
D31*
X170968668Y-105642000D03*
X169698668Y-105642000D03*
X168428668Y-105642000D03*
X167158668Y-105642000D03*
X167158668Y-111042000D03*
X168428668Y-111042000D03*
X169698668Y-111042000D03*
X170968668Y-111042000D03*
%TD*%
D17*
%TO.C,C6*%
X129865000Y-74422000D03*
X130825000Y-74422000D03*
%TD*%
D21*
%TO.C,C13*%
X103886000Y-112748000D03*
X103886000Y-111788000D03*
%TD*%
D19*
%TO.C,R13*%
X146248000Y-69471000D03*
X146248000Y-68451000D03*
%TD*%
D32*
%TO.C,U12*%
X101649000Y-118491000D03*
X101649000Y-119761000D03*
X101649000Y-121031000D03*
X101649000Y-122301000D03*
X101649000Y-123571000D03*
X101649000Y-124841000D03*
X101649000Y-126111000D03*
X101649000Y-127381000D03*
X101649000Y-128651000D03*
X110949000Y-128651000D03*
X110949000Y-127381000D03*
X110949000Y-126111000D03*
X110949000Y-124841000D03*
X110949000Y-123571000D03*
X110949000Y-122301000D03*
X110949000Y-121031000D03*
X110949000Y-119761000D03*
X110949000Y-118491000D03*
%TD*%
D12*
%TO.C,C5*%
X130825000Y-79248000D03*
X129865000Y-79248000D03*
%TD*%
D11*
%TO.C,R11*%
X149548000Y-62230000D03*
X150568000Y-62230000D03*
%TD*%
D33*
%TO.C,U6*%
X166243000Y-131979000D03*
X164973000Y-131979000D03*
X163703000Y-131979000D03*
X162433000Y-131979000D03*
X161163000Y-131979000D03*
X159893000Y-131979000D03*
X158623000Y-131979000D03*
X157353000Y-131979000D03*
X156083000Y-131979000D03*
X154813000Y-131979000D03*
X153543000Y-131979000D03*
X152273000Y-131979000D03*
X151003000Y-131979000D03*
X149733000Y-131979000D03*
X149733000Y-141579000D03*
X151003000Y-141579000D03*
X152273000Y-141579000D03*
X153543000Y-141579000D03*
X154813000Y-141579000D03*
X156083000Y-141579000D03*
X157353000Y-141579000D03*
X158623000Y-141579000D03*
X159893000Y-141579000D03*
X161163000Y-141579000D03*
X162433000Y-141579000D03*
X163703000Y-141579000D03*
X164973000Y-141579000D03*
X166243000Y-141579000D03*
%TD*%
D34*
%TO.C,U13*%
X117914500Y-60026000D03*
X117914500Y-60676000D03*
X117914500Y-61326000D03*
X117914500Y-61976000D03*
X117914500Y-62626000D03*
X117914500Y-63276000D03*
X117914500Y-63926000D03*
X123639500Y-63926000D03*
X123639500Y-63276000D03*
X123639500Y-62626000D03*
X123639500Y-61976000D03*
X123639500Y-61326000D03*
X123639500Y-60676000D03*
X123639500Y-60026000D03*
%TD*%
D17*
%TO.C,C18*%
X108712000Y-72353500D03*
X109672000Y-72353500D03*
%TD*%
D35*
%TO.C,Cin1*%
X171130000Y-101092000D03*
X169230000Y-101092000D03*
%TD*%
D32*
%TO.C,U5*%
X134796000Y-67437000D03*
X134796000Y-68707000D03*
X134796000Y-69977000D03*
X134796000Y-71247000D03*
X134796000Y-72517000D03*
X134796000Y-73787000D03*
X134796000Y-75057000D03*
X134796000Y-76327000D03*
X134796000Y-77597000D03*
X144096000Y-77597000D03*
X144096000Y-76327000D03*
X144096000Y-75057000D03*
X144096000Y-73787000D03*
X144096000Y-72517000D03*
X144096000Y-71247000D03*
X144096000Y-69977000D03*
X144096000Y-68707000D03*
X144096000Y-67437000D03*
%TD*%
D21*
%TO.C,C12*%
X152654000Y-129385000D03*
X152654000Y-128425000D03*
%TD*%
D11*
%TO.C,R16*%
X116076000Y-112776000D03*
X117096000Y-112776000D03*
%TD*%
D15*
%TO.C,Rfbb1*%
X166904668Y-112787000D03*
X165884668Y-112787000D03*
%TD*%
D18*
%TO.C,R5*%
X120777000Y-123821000D03*
X120777000Y-124841000D03*
%TD*%
D15*
%TO.C,R14*%
X151005000Y-143383000D03*
X149985000Y-143383000D03*
%TD*%
%TO.C,R24*%
X121287000Y-75311000D03*
X120267000Y-75311000D03*
%TD*%
%TO.C,R15*%
X154561000Y-143383000D03*
X153541000Y-143383000D03*
%TD*%
D17*
%TO.C,C16*%
X96421000Y-125476000D03*
X97381000Y-125476000D03*
%TD*%
D35*
%TO.C,Chf1*%
X171130000Y-103378000D03*
X169230000Y-103378000D03*
%TD*%
D15*
%TO.C,R9*%
X138686000Y-124333000D03*
X137666000Y-124333000D03*
%TD*%
D34*
%TO.C,U14*%
X113004500Y-66831000D03*
X113004500Y-67481000D03*
X113004500Y-68131000D03*
X113004500Y-68781000D03*
X113004500Y-69431000D03*
X113004500Y-70081000D03*
X113004500Y-70731000D03*
X113004500Y-71381000D03*
X113004500Y-72031000D03*
X113004500Y-72681000D03*
X113004500Y-73331000D03*
X113004500Y-73981000D03*
X113004500Y-74631000D03*
X113004500Y-75281000D03*
X118729500Y-75281000D03*
X118729500Y-74631000D03*
X118729500Y-73981000D03*
X118729500Y-73331000D03*
X118729500Y-72681000D03*
X118729500Y-72031000D03*
X118729500Y-71381000D03*
X118729500Y-70731000D03*
X118729500Y-70081000D03*
X118729500Y-69431000D03*
X118729500Y-68781000D03*
X118729500Y-68131000D03*
X118729500Y-67481000D03*
X118729500Y-66831000D03*
%TD*%
D11*
%TO.C,R2*%
X156675500Y-75057000D03*
X157695500Y-75057000D03*
%TD*%
D15*
%TO.C,R23*%
X115826000Y-65405000D03*
X114806000Y-65405000D03*
%TD*%
%TO.C,R7*%
X138813000Y-135001000D03*
X137793000Y-135001000D03*
%TD*%
D36*
%TO.C,R1*%
X142621000Y-147126000D03*
X142621000Y-145476000D03*
%TD*%
D25*
%TO.C,U11*%
X105856000Y-110363000D03*
X105856000Y-111633000D03*
X105856000Y-112903000D03*
X105856000Y-114173000D03*
X110806000Y-114173000D03*
X110806000Y-112903000D03*
X110806000Y-111633000D03*
X110806000Y-110363000D03*
%TD*%
D27*
%TO.C,Y1*%
X129245000Y-77687000D03*
X131445000Y-77687000D03*
X131445000Y-75987000D03*
X129245000Y-75987000D03*
%TD*%
D19*
%TO.C,R18*%
X113030000Y-120398000D03*
X113030000Y-119378000D03*
%TD*%
D18*
%TO.C,R6*%
X120777000Y-126109000D03*
X120777000Y-127129000D03*
%TD*%
D29*
%TO.C,R8*%
X129731000Y-135255000D03*
X131381000Y-135255000D03*
%TD*%
M02*
