M48
; DRILL file {KiCad 6.0.2+dfsg-1} date Tue 13 Jun 2023 07:55:06 PM EDT
; FORMAT={-:-/ absolute / inch / decimal}
; #@! TF.CreationDate,2023-06-13T19:55:06-04:00
; #@! TF.GenerationSoftware,Kicad,Pcbnew,6.0.2+dfsg-1
; #@! TF.FileFunction,Plated,1,2,PTH
FMAT,2
INCH
; #@! TA.AperFunction,Plated,PTH,ComponentDrill
T1C0.0118
; #@! TA.AperFunction,Plated,PTH,ViaDrill
T2C0.0157
; #@! TA.AperFunction,Plated,PTH,ComponentDrill
T3C0.0295
; #@! TA.AperFunction,Plated,PTH,ComponentDrill
T4C0.0315
; #@! TA.AperFunction,Plated,PTH,ComponentDrill
T5C0.0331
; #@! TA.AperFunction,Plated,PTH,ComponentDrill
T6C0.0354
; #@! TA.AperFunction,Plated,PTH,ComponentDrill
T7C0.0394
; #@! TA.AperFunction,Plated,PTH,ComponentDrill
T8C0.0433
%
G90
G05
T1
X6.5793Y-4.2398
X6.5793Y-4.291
X6.6305Y-4.2398
X6.6305Y-4.291
X6.6816Y-4.2398
X6.6816Y-4.291
X6.7328Y-4.2398
X6.7328Y-4.291
T2
X3.765Y-4.55
X3.8Y-4.31
X3.93Y-3.12
X4.07Y-5.29
X4.115Y-3.875
X4.13Y-3.12
X4.15Y-5.67
X4.215Y-5.945
X4.22Y-4.855
X4.28Y-3.735
X4.28Y-3.88
X4.35Y-4.185
X4.365Y-4.595
X4.435Y-3.12
X4.4424Y-4.8835
X4.4698Y-4.9702
X4.485Y-4.795
X4.49Y-3.7801
X4.495Y-3.595
X4.4988Y-2.9442
X4.5Y-3.865
X4.505Y-4.905
X4.505Y-5.045
X4.535Y-3.0
X4.555Y-5.335
X4.56Y-2.965
X4.575Y-3.035
X4.6Y-3.285
X4.69Y-2.57
X4.71Y-3.12
X4.735Y-5.605
X4.76Y-4.825
X4.77Y-5.0735
X4.81Y-3.06
X4.8677Y-2.3573
X4.8677Y-2.5227
X5.07Y-3.27
X5.095Y-4.995
X5.12Y-2.515
X5.14Y-5.425
X5.165Y-3.235
X5.21Y-5.36
X5.24Y-5.525
X5.28Y-4.76
X5.36Y-4.91
X5.37Y-2.2
X5.385Y-5.38
X5.48Y-5.39
X5.48Y-5.71
X5.49Y-5.845
X5.495Y-2.74
X5.565Y-5.475
X5.58Y-2.74
X5.675Y-2.585
X5.79Y-2.185
X5.805Y-4.69
X5.85Y-2.65
X5.91Y-5.91
X6.07Y-4.79
X6.085Y-5.68
X6.1Y-3.655
X6.15Y-3.82
X6.15Y-3.865
X6.175Y-5.115
X6.2215Y-4.2965
X6.23Y-2.35
X6.255Y-5.115
X6.29Y-4.29
X6.295Y-3.825
X6.295Y-3.87
X6.37Y-2.58
X6.465Y-4.635
X6.51Y-4.3
X6.52Y-4.23
X6.525Y-3.435
X6.53Y-3.755
X6.545Y-2.46
X6.62Y-5.04
X6.72Y-5.035
X6.7894Y-4.0894
X6.8Y-4.22
X6.8Y-4.31
X6.815Y-5.71
X6.82Y-5.035
X6.84Y-3.365
X6.92Y-5.035
X6.93Y-2.655
X6.94Y-1.815
X6.97Y-2.45
X7.11Y-4.605
X7.145Y-3.255
X7.155Y-3.875
X7.1556Y-3.8357
X7.24Y-3.865
X7.375Y-2.565
X7.43Y-2.3
X7.455Y-2.04
X7.49Y-3.86
X7.5Y-4.19
X7.5402Y-4.9552
T3
X5.67Y-5.2142
X5.72Y-5.2142
X5.77Y-5.2142
T4
X6.8149Y-2.93
X6.9527Y-2.93
X7.3399Y-2.93
X7.4777Y-2.93
T5
X6.3034Y-2.95
X6.3034Y-3.05
X6.3034Y-3.15
X6.6034Y-2.95
X6.6034Y-3.05
X6.6034Y-3.15
T6
X4.605Y-4.82
X4.605Y-5.12
T7
X3.815Y-5.4261
X3.815Y-5.5639
X4.0035Y-3.3845
X4.0035Y-3.4845
X4.0087Y-3.9852
X4.0087Y-4.0852
X4.1035Y-3.3845
X4.1035Y-3.4845
X4.1087Y-3.9852
X4.1087Y-4.0852
X4.2035Y-3.3845
X4.2035Y-3.4845
X4.2087Y-3.9852
X4.2087Y-4.0852
X4.3035Y-3.3845
X4.3035Y-3.4845
X4.3087Y-3.9852
X4.3087Y-4.0852
X4.4035Y-3.3845
X4.4035Y-3.4845
X4.4087Y-3.9852
X4.4087Y-4.0852
X4.5035Y-3.3845
X4.5035Y-3.4845
X4.5087Y-3.9852
X4.5087Y-4.0852
X4.6035Y-3.3845
X4.6035Y-3.4845
X4.6087Y-3.9852
X4.6087Y-4.0852
X4.7035Y-3.3845
X4.7035Y-3.4845
X4.7087Y-3.9852
X4.7087Y-4.0852
X4.8035Y-3.3845
X4.8035Y-3.4845
X4.8087Y-3.9852
X4.8087Y-4.0852
X4.8454Y-1.995
X4.9035Y-3.3845
X4.9035Y-3.4845
X4.9087Y-3.9852
X4.9087Y-4.0852
X4.9087Y-4.6356
X4.9087Y-4.7356
X4.9087Y-4.8356
X4.9087Y-4.9356
X4.9087Y-5.0356
X4.9087Y-5.1356
X4.9087Y-5.2356
X4.9087Y-5.3356
X4.9087Y-5.515
X4.9087Y-5.615
X4.9087Y-5.715
X4.9087Y-5.815
X4.9087Y-5.915
X4.9087Y-6.015
X4.9454Y-1.995
X5.0035Y-3.3845
X5.0035Y-3.4845
X5.0087Y-3.9852
X5.0087Y-4.0852
X5.0454Y-1.995
X5.1035Y-3.3845
X5.1035Y-3.4845
X5.1087Y-3.9852
X5.1087Y-4.0852
X5.1454Y-1.995
X5.2035Y-3.3845
X5.2035Y-3.4845
X5.2087Y-3.9852
X5.2087Y-4.0852
X5.3035Y-3.3845
X5.3035Y-3.4845
X5.3085Y-4.495
X5.3087Y-3.9852
X5.3087Y-4.0852
X5.3787Y-5.515
X5.3787Y-5.615
X5.3787Y-5.715
X5.3787Y-5.815
X5.3787Y-5.915
X5.3787Y-6.015
X5.4035Y-3.3845
X5.4035Y-3.4845
X5.4085Y-4.495
X5.4087Y-3.9852
X5.4087Y-4.0852
X5.5035Y-3.3845
X5.5035Y-3.4845
X5.5085Y-4.495
X5.5087Y-3.9852
X5.5087Y-4.0852
X5.6004Y-1.995
X5.6035Y-3.3845
X5.6035Y-3.4845
X5.6085Y-4.495
X5.6087Y-3.9852
X5.6087Y-4.0852
X5.7004Y-1.995
X5.7035Y-3.3845
X5.7035Y-3.4845
X5.7085Y-4.495
X5.7085Y-4.595
X5.7085Y-4.695
X5.7085Y-4.795
X5.7085Y-4.895
X5.7087Y-3.9852
X5.7087Y-4.0852
X5.8004Y-1.995
X5.8035Y-3.3845
X5.8035Y-3.4845
X5.8085Y-4.495
X5.8087Y-3.9852
X5.8087Y-4.0852
X5.9004Y-1.995
X5.9035Y-3.3845
X5.9035Y-3.4845
X5.9085Y-4.495
X5.9087Y-3.9852
X5.9087Y-4.0852
X6.0085Y-4.495
X6.7798Y-1.9846
X6.7798Y-2.0846
X6.7798Y-2.3548
X6.7798Y-2.4548
X6.7948Y-3.6198
X6.7948Y-3.7198
X6.8798Y-1.9846
X6.8798Y-2.0846
X6.8798Y-2.3548
X6.8798Y-2.4548
X6.8948Y-3.6198
X6.8948Y-3.7198
X6.9554Y-5.23
X6.9948Y-3.6198
X6.9948Y-3.7198
X7.0554Y-5.23
X7.0948Y-3.6198
X7.0948Y-3.7198
X7.0998Y-1.9846
X7.0998Y-2.0846
X7.0998Y-2.3548
X7.0998Y-2.4548
X7.1554Y-5.23
X7.1948Y-3.6198
X7.1948Y-3.7198
X7.1998Y-1.9846
X7.1998Y-2.0846
X7.1998Y-2.3548
X7.1998Y-2.4548
X7.2554Y-5.23
T8
X5.72Y-5.365
X5.72Y-5.765
T0
M30
